<?xml version="1.0" standalone="no"?>
<!DOCTYPE svg PUBLIC "-//W3C//DTD SVG 20010904//EN"
 "http://www.w3.org/TR/2001/REC-SVG-20010904/DTD/svg10.dtd">
<svg version="1.0" xmlns="http://www.w3.org/2000/svg"
 width="260.000000pt" height="260.000000pt" viewBox="0 0 260.000000 260.000000"
 preserveAspectRatio="xMidYMid meet">
<metadata>
Created by potrace 1.11, written by Peter Selinger 2001-2013
</metadata>
<g transform="translate(0.000000,260.000000) scale(0.100000,-0.100000)"
fill="#000000" stroke="none">
<path d="M1225 1805 c-40 -39 -29 -97 22 -116 58 -22 116 36 94 94 -19 51 -77
62 -116 22z"/>
<path d="M1792 1629 c-37 -9 -80 -21 -95 -28 -38 -15 -117 -70 -117 -81 0 -4
20 -28 44 -53 l43 -45 49 34 c119 82 283 78 348 -9 35 -47 37 -63 37 -220 0
-197 -24 -257 -125 -309 -85 -44 -240 -19 -272 44 -34 65 -13 136 50 173 67
38 117 48 294 54 20 1 22 6 20 46 -2 65 -7 69 -85 69 -289 -1 -453 -101 -453
-278 0 -76 17 -123 62 -172 52 -56 127 -86 223 -87 105 -1 178 26 242 88 29
28 53 51 54 51 1 -1 2 -23 3 -51 0 -27 4 -55 8 -60 5 -8 75 -12 123 -6 6 1 9
110 7 313 -3 385 -7 401 -112 477 -84 60 -223 81 -348 50z"/>
<path d="M344 1631 c-2 -2 -4 -193 -4 -423 l0 -419 70 2 c39 1 70 5 71 8 0 3
2 164 2 356 l2 350 145 -1 c201 -1 242 -24 243 -142 2 -109 -49 -142 -226
-147 -59 -1 -112 -6 -117 -11 -5 -5 -10 -31 -11 -59 l-3 -50 141 -2 c167 -2
223 11 288 69 56 50 79 109 78 204 0 132 -67 222 -188 256 -37 10 -481 18
-491 9z"/>
<path d="M1210 1208 l0 -418 63 0 63 0 -2 413 c-1 226 -2 415 -3 418 0 3 -28
5 -61 5 l-60 -1 0 -417z"/>
</g>
</svg>
