<?xml version="1.0" encoding="UTF-8" standalone="no"?>
<!DOCTYPE svg PUBLIC "-//W3C//DTD SVG 1.1//EN"
 "http://www.w3.org/Graphics/SVG/1.1/DTD/svg11.dtd">
<!-- Generated by graphviz version 2.40.1 (20161225.0304)
 -->
<!-- Title: dependencies Pages: 1 -->
<svg width="860pt" height="276pt"
 viewBox="0.00 0.00 860.00 276.00" xmlns="http://www.w3.org/2000/svg" xmlns:xlink="http://www.w3.org/1999/xlink">
<g id="graph0" class="graph" transform="scale(1 1) rotate(0) translate(4 272)">
<title>dependencies</title>
<polygon fill="#ffffff" stroke="transparent" points="-4,4 -4,-272 856,-272 856,4 -4,4"/>
<text text-anchor="start" x="405.0091" y="-42.4" font-family="sans-serif" font-weight="bold" font-size="14.00" fill="#000000">Legend</text>
<polygon fill="#ffffb3" stroke="transparent" points="192,-10 192,-30 212,-30 212,-10 192,-10"/>
<text text-anchor="start" x="215.629" y="-15.4" font-family="sans-serif" font-size="14.00" fill="#000000"> &#160;Declarations</text>
<polygon fill="#8dd3c7" stroke="transparent" points="305,-10 305,-30 325,-30 325,-10 305,-10"/>
<text text-anchor="start" x="328.7251" y="-15.4" font-family="sans-serif" font-size="14.00" fill="#000000"> &#160;Module</text>
<polygon fill="#80b1d3" stroke="transparent" points="391,-10 391,-30 411,-30 411,-10 391,-10"/>
<text text-anchor="start" x="414.7812" y="-15.4" font-family="sans-serif" font-size="14.00" fill="#000000"> &#160;Bootstrap</text>
<polygon fill="#fdb462" stroke="transparent" points="488,-10 488,-30 508,-30 508,-10 488,-10"/>
<text text-anchor="start" x="511.6732" y="-15.4" font-family="sans-serif" font-size="14.00" fill="#000000"> &#160;Providers</text>
<polygon fill="#fb8072" stroke="transparent" points="584,-10 584,-30 604,-30 604,-10 584,-10"/>
<text text-anchor="start" x="607.7258" y="-15.4" font-family="sans-serif" font-size="14.00" fill="#000000"> &#160;Exports</text>
<g id="clust1" class="cluster">
<title>cluster_StructuresModule</title>
<polygon fill="none" stroke="#000000" stroke-dasharray="1,5" points="8,-70 8,-260 844,-260 844,-70 8,-70"/>
</g>
<g id="clust2" class="cluster">
<title>cluster_StructuresModule_declarations</title>
<polygon fill="none" stroke="#000000" points="552,-143 552,-195 836,-195 836,-143 552,-143"/>
</g>
<g id="clust3" class="cluster">
<title>cluster_StructuresModule_EntryComponent_providers</title>
<polygon fill="none" stroke="#000000" points="714,-78 714,-130 834,-130 834,-78 714,-78"/>
</g>
<g id="clust4" class="cluster">
<title>cluster_StructuresModule_StructuresComponent_providers</title>
<polygon fill="none" stroke="#000000" points="540,-78 540,-130 706,-130 706,-78 540,-78"/>
</g>
<g id="clust5" class="cluster">
<title>cluster_StructuresModule_imports</title>
<polygon fill="none" stroke="#000000" points="250,-143 250,-195 544,-195 544,-143 250,-143"/>
</g>
<g id="clust8" class="cluster">
<title>cluster_StructuresModule_providers</title>
<polygon fill="none" stroke="#000000" points="16,-143 16,-195 242,-195 242,-143 16,-143"/>
</g>
<!-- EntryComponent -->
<g id="node1" class="node">
<title>EntryComponent</title>
<polygon fill="#ffffb3" stroke="#000000" points="828.437,-187 715.563,-187 715.563,-151 828.437,-151 828.437,-187"/>
<text text-anchor="middle" x="772" y="-164.8" font-family="Times,serif" font-size="14.00" fill="#000000">EntryComponent</text>
</g>
<!-- StructuresModule -->
<g id="node3" class="node">
<title>StructuresModule</title>
<polygon fill="#8dd3c7" stroke="#000000" points="545.309,-252 542.309,-256 521.309,-256 518.309,-252 428.691,-252 428.691,-216 545.309,-216 545.309,-252"/>
<text text-anchor="middle" x="487" y="-229.8" font-family="Times,serif" font-size="14.00" fill="#000000">StructuresModule</text>
</g>
<!-- EntryComponent&#45;&gt;StructuresModule -->
<g id="edge1" class="edge">
<title>EntryComponent&#45;&gt;StructuresModule</title>
<path fill="none" stroke="#000000" d="M772,-187.1061C772,-206.3391 772,-234 772,-234 772,-234 555.3617,-234 555.3617,-234"/>
<polygon fill="#000000" stroke="#000000" points="555.3618,-230.5001 545.3617,-234 555.3617,-237.5001 555.3618,-230.5001"/>
</g>
<!-- StructuresComponent -->
<g id="node2" class="node">
<title>StructuresComponent</title>
<polygon fill="#ffffb3" stroke="#000000" points="698.0912,-187 559.9088,-187 559.9088,-151 698.0912,-151 698.0912,-187"/>
<text text-anchor="middle" x="629" y="-164.8" font-family="Times,serif" font-size="14.00" fill="#000000">StructuresComponent</text>
</g>
<!-- StructuresComponent&#45;&gt;StructuresModule -->
<g id="edge3" class="edge">
<title>StructuresComponent&#45;&gt;StructuresModule</title>
<path fill="none" stroke="#000000" d="M559.8462,-169C548.6727,-169 540.6827,-169 540.6827,-169 540.6827,-169 540.6827,-205.8939 540.6827,-205.8939"/>
<polygon fill="#000000" stroke="#000000" points="537.1828,-205.8938 540.6827,-215.8939 544.1828,-205.8939 537.1828,-205.8938"/>
</g>
<!-- PiaService -->
<g id="node4" class="node">
<title>PiaService</title>
<ellipse fill="#fdb462" stroke="#000000" cx="774" cy="-104" rx="52.1617" ry="18"/>
<text text-anchor="middle" x="774" y="-99.8" font-family="Times,serif" font-size="14.00" fill="#000000">PiaService</text>
</g>
<!-- PiaService&#45;&gt;EntryComponent -->
<g id="edge2" class="edge">
<title>PiaService&#45;&gt;EntryComponent</title>
<path fill="none" stroke="#000000" d="M774,-122.1061C774,-122.1061 774,-140.991 774,-140.991"/>
<polygon fill="#000000" stroke="#000000" points="770.5001,-140.9909 774,-150.991 777.5001,-140.991 770.5001,-140.9909"/>
</g>
<!-- StructureService -->
<g id="node5" class="node">
<title>StructureService</title>
<ellipse fill="#fdb462" stroke="#000000" cx="623" cy="-104" rx="75.2751" ry="18"/>
<text text-anchor="middle" x="623" y="-99.8" font-family="Times,serif" font-size="14.00" fill="#000000">StructureService</text>
</g>
<!-- StructureService&#45;&gt;StructuresComponent -->
<g id="edge4" class="edge">
<title>StructureService&#45;&gt;StructuresComponent</title>
<path fill="none" stroke="#000000" d="M629,-122.1061C629,-122.1061 629,-140.991 629,-140.991"/>
<polygon fill="#000000" stroke="#000000" points="625.5001,-140.9909 629,-150.991 632.5001,-140.991 625.5001,-140.9909"/>
</g>
<!-- SharedModule -->
<g id="node6" class="node">
<title>SharedModule</title>
<polygon fill="#8dd3c7" stroke="#000000" points="536.4231,-187 533.4231,-191 512.4231,-191 509.4231,-187 437.5769,-187 437.5769,-151 536.4231,-151 536.4231,-187"/>
<text text-anchor="middle" x="487" y="-164.8" font-family="Times,serif" font-size="14.00" fill="#000000">SharedModule</text>
</g>
<!-- SharedModule&#45;&gt;StructuresModule -->
<g id="edge5" class="edge">
<title>SharedModule&#45;&gt;StructuresModule</title>
<path fill="none" stroke="#000000" d="M487,-187.1061C487,-187.1061 487,-205.991 487,-205.991"/>
<polygon fill="#000000" stroke="#000000" points="483.5001,-205.9909 487,-215.991 490.5001,-205.991 483.5001,-205.9909"/>
</g>
<!-- StructuresRoutingModule -->
<g id="node7" class="node">
<title>StructuresRoutingModule</title>
<polygon fill="#8dd3c7" stroke="#000000" points="419.927,-187 416.927,-191 395.927,-191 392.927,-187 258.073,-187 258.073,-151 419.927,-151 419.927,-187"/>
<text text-anchor="middle" x="339" y="-164.8" font-family="Times,serif" font-size="14.00" fill="#000000">StructuresRoutingModule</text>
</g>
<!-- StructuresRoutingModule&#45;&gt;StructuresModule -->
<g id="edge6" class="edge">
<title>StructuresRoutingModule&#45;&gt;StructuresModule</title>
<path fill="none" stroke="#000000" d="M419.8039,-169C427.9622,-169 433.3173,-169 433.3173,-169 433.3173,-169 433.3173,-205.8939 433.3173,-205.8939"/>
<polygon fill="#000000" stroke="#000000" points="429.8174,-205.8938 433.3173,-215.8939 436.8174,-205.8939 429.8174,-205.8938"/>
</g>
<!-- AnswerStructureService -->
<g id="node8" class="node">
<title>AnswerStructureService</title>
<ellipse fill="#fdb462" stroke="#000000" cx="129" cy="-169" rx="105.3316" ry="18"/>
<text text-anchor="middle" x="129" y="-164.8" font-family="Times,serif" font-size="14.00" fill="#000000">AnswerStructureService</text>
</g>
<!-- AnswerStructureService&#45;&gt;StructuresModule -->
<g id="edge7" class="edge">
<title>AnswerStructureService&#45;&gt;StructuresModule</title>
<path fill="none" stroke="#000000" d="M129,-187.1061C129,-206.3391 129,-234 129,-234 129,-234 418.6843,-234 418.6843,-234"/>
<polygon fill="#000000" stroke="#000000" points="418.6844,-237.5001 428.6843,-234 418.6843,-230.5001 418.6844,-237.5001"/>
</g>
</g>
</svg>
