<?xml version="1.0" encoding="UTF-8" standalone="no"?>
<!DOCTYPE svg PUBLIC "-//W3C//DTD SVG 1.1//EN"
 "http://www.w3.org/Graphics/SVG/1.1/DTD/svg11.dtd">
<!-- Generated by graphviz version 2.40.1 (20161225.0304)
 -->
<!-- Title: dependencies Pages: 1 -->
<svg width="528pt" height="211pt"
 viewBox="0.00 0.00 528.00 211.00" xmlns="http://www.w3.org/2000/svg" xmlns:xlink="http://www.w3.org/1999/xlink">
<g id="graph0" class="graph" transform="scale(1 1) rotate(0) translate(4 207)">
<title>dependencies</title>
<polygon fill="#ffffff" stroke="transparent" points="-4,4 -4,-207 524,-207 524,4 -4,4"/>
<text text-anchor="start" x="239.0091" y="-42.4" font-family="sans-serif" font-weight="bold" font-size="14.00" fill="#000000">Legend</text>
<polygon fill="#ffffb3" stroke="transparent" points="26,-10 26,-30 46,-30 46,-10 26,-10"/>
<text text-anchor="start" x="49.629" y="-15.4" font-family="sans-serif" font-size="14.00" fill="#000000"> &#160;Declarations</text>
<polygon fill="#8dd3c7" stroke="transparent" points="139,-10 139,-30 159,-30 159,-10 139,-10"/>
<text text-anchor="start" x="162.7251" y="-15.4" font-family="sans-serif" font-size="14.00" fill="#000000"> &#160;Module</text>
<polygon fill="#80b1d3" stroke="transparent" points="225,-10 225,-30 245,-30 245,-10 225,-10"/>
<text text-anchor="start" x="248.7812" y="-15.4" font-family="sans-serif" font-size="14.00" fill="#000000"> &#160;Bootstrap</text>
<polygon fill="#fdb462" stroke="transparent" points="322,-10 322,-30 342,-30 342,-10 322,-10"/>
<text text-anchor="start" x="345.6732" y="-15.4" font-family="sans-serif" font-size="14.00" fill="#000000"> &#160;Providers</text>
<polygon fill="#fb8072" stroke="transparent" points="418,-10 418,-30 438,-30 438,-10 418,-10"/>
<text text-anchor="start" x="441.7258" y="-15.4" font-family="sans-serif" font-size="14.00" fill="#000000"> &#160;Exports</text>
<g id="clust1" class="cluster">
<title>cluster_AppRoutingModule</title>
<polygon fill="none" stroke="#000000" stroke-dasharray="1,5" points="8,-70 8,-195 512,-195 512,-70 8,-70"/>
</g>
<g id="clust3" class="cluster">
<title>cluster_AppRoutingModule_imports</title>
<polygon fill="none" stroke="#000000" points="16,-78 16,-130 504,-130 504,-78 16,-78"/>
</g>
<!-- CardsRoutingModule -->
<g id="node1" class="node">
<title>CardsRoutingModule</title>
<polygon fill="#8dd3c7" stroke="#000000" points="495.8244,-122 492.8244,-126 471.8244,-126 468.8244,-122 358.1756,-122 358.1756,-86 495.8244,-86 495.8244,-122"/>
<text text-anchor="middle" x="427" y="-99.8" font-family="Times,serif" font-size="14.00" fill="#000000">CardsRoutingModule</text>
</g>
<!-- AppRoutingModule -->
<g id="node4" class="node">
<title>AppRoutingModule</title>
<polygon fill="#8dd3c7" stroke="#000000" points="336.2744,-187 333.2744,-191 312.2744,-191 309.2744,-187 207.7256,-187 207.7256,-151 336.2744,-151 336.2744,-187"/>
<text text-anchor="middle" x="272" y="-164.8" font-family="Times,serif" font-size="14.00" fill="#000000">AppRoutingModule</text>
</g>
<!-- CardsRoutingModule&#45;&gt;AppRoutingModule -->
<g id="edge1" class="edge">
<title>CardsRoutingModule&#45;&gt;AppRoutingModule</title>
<path fill="none" stroke="#000000" d="M427,-122.1061C427,-141.3391 427,-169 427,-169 427,-169 346.3874,-169 346.3874,-169"/>
<polygon fill="#000000" stroke="#000000" points="346.3874,-165.5001 336.3874,-169 346.3874,-172.5001 346.3874,-165.5001"/>
</g>
<!-- EntryRoutingModule -->
<g id="node2" class="node">
<title>EntryRoutingModule</title>
<polygon fill="#8dd3c7" stroke="#000000" points="339.7716,-122 336.7716,-126 315.7716,-126 312.7716,-122 204.2284,-122 204.2284,-86 339.7716,-86 339.7716,-122"/>
<text text-anchor="middle" x="272" y="-99.8" font-family="Times,serif" font-size="14.00" fill="#000000">EntryRoutingModule</text>
</g>
<!-- EntryRoutingModule&#45;&gt;AppRoutingModule -->
<g id="edge2" class="edge">
<title>EntryRoutingModule&#45;&gt;AppRoutingModule</title>
<path fill="none" stroke="#000000" d="M272,-122.1061C272,-122.1061 272,-140.991 272,-140.991"/>
<polygon fill="#000000" stroke="#000000" points="268.5001,-140.9909 272,-150.991 275.5001,-140.991 268.5001,-140.9909"/>
</g>
<!-- StructuresRoutingModule -->
<g id="node3" class="node">
<title>StructuresRoutingModule</title>
<polygon fill="#8dd3c7" stroke="#000000" points="185.927,-122 182.927,-126 161.927,-126 158.927,-122 24.073,-122 24.073,-86 185.927,-86 185.927,-122"/>
<text text-anchor="middle" x="105" y="-99.8" font-family="Times,serif" font-size="14.00" fill="#000000">StructuresRoutingModule</text>
</g>
<!-- StructuresRoutingModule&#45;&gt;AppRoutingModule -->
<g id="edge3" class="edge">
<title>StructuresRoutingModule&#45;&gt;AppRoutingModule</title>
<path fill="none" stroke="#000000" d="M105,-122.1061C105,-141.3391 105,-169 105,-169 105,-169 197.4334,-169 197.4334,-169"/>
<polygon fill="#000000" stroke="#000000" points="197.4335,-172.5001 207.4334,-169 197.4334,-165.5001 197.4335,-172.5001"/>
</g>
</g>
</svg>
